<?xml version="1.0" standalone="no"?>
<!DOCTYPE svg PUBLIC "-//W3C//DTD SVG 20010904//EN"
 "http://www.w3.org/TR/2001/REC-SVG-20010904/DTD/svg10.dtd">
<svg version="1.0" xmlns="http://www.w3.org/2000/svg"
 width="188.000000pt" height="320.000000pt" viewBox="0 0 188.000000 320.000000"
 preserveAspectRatio="xMidYMid meet">

<g transform="translate(0.000000,320.000000) scale(0.100000,-0.100000)"
fill="#000000" stroke="none">
<path d="M300 3179 c-19 -3 -28 -7 -20 -8 9 -2 5 -6 -9 -12 -14 -5 -30 -8 -37
-5 -7 3 -20 -1 -29 -8 -15 -11 -16 -18 -7 -47 11 -34 19 -192 11 -218 -2 -8
12 -22 36 -35 31 -16 41 -28 43 -51 2 -17 6 -37 9 -45 4 -8 5 -35 4 -60 l-3
-46 41 4 41 4 -3 86 -2 86 43 29 c33 22 41 33 35 46 -4 9 -8 69 -9 135 -1 105
-3 120 -20 129 -28 16 -85 23 -124 16z"/>
<path d="M600 2652 c0 -7 -15 -12 -35 -12 -19 0 -35 -4 -35 -10 0 -5 6 -7 13
-4 8 3 18 -6 25 -21 6 -14 16 -25 22 -25 16 0 12 18 -7 29 -21 11 -13 24 10
15 43 -16 49 -47 61 -313 7 -141 13 -346 14 -456 l2 -200 -28 -40 -28 -40 -94
-8 c-52 -4 -139 -6 -192 -5 -74 2 -94 0 -86 -9 5 -6 16 -9 24 -6 8 3 26 2 40
-1 21 -6 25 -11 19 -29 -4 -12 -7 -29 -7 -38 1 -13 -15 -18 -81 -24 -45 -4
-94 -13 -110 -21 -61 -32 -83 -114 -51 -193 19 -48 49 -69 109 -78 44 -6 45
-6 45 -44 0 -21 10 -59 22 -84 12 -24 20 -46 17 -48 -48 -39 -105 -77 -114
-77 -7 0 -15 7 -18 15 -8 19 -53 4 -91 -31 -39 -37 -26 -41 28 -9 38 22 49 25
61 15 22 -19 18 -30 -14 -41 -33 -12 -86 -74 -76 -90 4 -5 25 10 49 36 47 50
56 53 80 26 21 -24 14 -40 -31 -71 -28 -19 -32 -26 -19 -28 9 -2 33 8 52 23
27 20 33 31 28 49 -4 19 1 26 31 40 60 29 85 56 85 92 0 24 5 34 20 39 29 9
35 49 15 103 -10 26 -22 51 -26 57 -15 16 -10 33 9 28 9 -2 36 0 59 5 l42 10
-21 -37 c-34 -60 -2 -100 54 -68 27 15 30 15 60 -3 18 -11 52 -22 75 -26 24
-3 45 -10 48 -14 3 -5 15 -6 27 -2 16 4 19 2 12 -9 -32 -53 -73 -111 -109
-154 -22 -27 -58 -74 -79 -103 -21 -29 -43 -51 -50 -49 -18 6 -46 -33 -41 -57
4 -15 -7 -33 -35 -63 -34 -36 -45 -42 -69 -37 -25 5 -31 1 -52 -33 -13 -21
-23 -42 -21 -46 7 -22 -21 -47 -52 -47 -40 0 -46 -15 -52 -133 -2 -43 -6 -81
-8 -86 -3 -5 -26 -14 -51 -21 -71 -20 -67 -33 6 -25 90 10 95 15 103 84 10 85
29 146 46 146 17 0 17 -10 6 -146 l-8 -86 -51 -23 c-40 -17 -47 -24 -32 -27
23 -6 122 15 130 27 3 4 12 46 20 92 18 95 30 128 47 128 21 0 68 53 68 77 0
16 6 23 20 23 12 0 31 7 43 15 22 14 24 13 41 -15 9 -17 24 -30 32 -30 18 0
70 -109 85 -179 9 -43 13 -49 40 -53 16 -3 46 3 67 13 l37 17 -38 1 c-21 1
-39 6 -41 13 -2 7 -10 44 -19 81 -23 95 -43 134 -76 145 -41 14 -47 49 -12 67
15 7 60 56 98 107 39 51 114 149 167 218 68 88 98 136 102 163 4 20 10 37 15
37 5 0 9 9 9 20 0 11 5 20 10 20 6 0 10 9 10 20 0 14 7 20 24 20 13 0 35 9 50
21 30 24 46 18 46 -17 0 -14 11 -47 25 -74 l25 -50 -29 0 c-21 0 -43 -13 -80
-48 -35 -33 -59 -48 -78 -47 -21 0 -32 -8 -50 -40 -42 -74 -24 -91 19 -19 16
25 32 43 37 40 5 -3 8 -25 7 -48 -1 -43 -1 -43 -53 -58 -55 -15 -70 -30 -30
-30 41 0 97 21 97 35 0 17 45 21 55 6 3 -6 -12 -28 -33 -50 -28 -29 -34 -41
-22 -41 21 0 82 63 79 81 -1 8 23 40 54 72 50 51 57 64 57 98 0 32 4 41 23 48
46 18 52 37 32 94 -10 29 -24 59 -32 68 -11 14 -10 18 8 35 25 22 58 90 59
119 0 15 23 35 80 70 44 28 82 57 85 65 10 32 117 71 131 48 11 -17 -19 -89
-43 -105 -17 -11 -23 -24 -23 -52 1 -56 27 -151 45 -165 15 -11 16 -16 4 -37
-8 -13 -19 -27 -25 -31 -17 -11 -119 -162 -103 -153 11 7 12 6 2 -7 -7 -8 -10
-17 -7 -21 6 -6 -53 -95 -131 -195 -29 -37 -85 -92 -93 -92 -16 0 -52 -50 -52
-72 0 -10 -7 -21 -15 -24 -8 -4 -15 -11 -15 -18 0 -14 -44 -56 -58 -56 -15 0
-23 -16 -36 -74 -11 -49 -13 -51 -42 -48 l-31 3 -22 -98 c-13 -54 -25 -107
-28 -118 -3 -12 -26 -31 -56 -45 -90 -45 -71 -63 34 -34 64 18 60 13 124 182
24 66 34 77 58 73 14 -2 46 42 47 64 0 11 7 29 16 40 11 15 18 17 32 9 23 -15
27 -48 7 -64 -8 -7 -15 -25 -15 -41 0 -20 -9 -35 -33 -53 -27 -21 -40 -45 -66
-120 -29 -82 -36 -94 -59 -99 -15 -4 -40 -17 -57 -31 l-30 -25 33 -1 c19 0 57
7 85 15 50 15 53 19 84 83 46 97 75 143 100 165 13 10 26 32 31 49 13 50 32
47 32 -5 0 -25 -5 -47 -11 -49 -8 -3 -6 -27 6 -82 14 -63 22 -80 41 -88 20
-10 33 -4 98 41 l75 51 18 -30 c26 -45 47 -40 40 11 -3 22 -7 43 -10 45 -13
13 -88 4 -125 -15 -23 -11 -45 -21 -50 -21 -14 0 -31 83 -21 102 14 25 11 59
-7 79 -14 15 -12 18 23 35 40 20 48 31 276 359 126 182 138 203 135 238 -2 28
2 41 14 48 10 6 14 17 11 29 -4 13 1 26 13 34 16 12 16 16 5 30 -12 14 -11 19
3 35 10 11 14 25 10 36 -5 12 2 24 21 40 l29 22 -13 74 c-14 82 -33 119 -59
119 -10 0 -35 18 -57 40 l-39 40 38 33 c33 28 39 40 44 85 4 50 3 54 -30 85
-29 27 -42 33 -70 29 l-35 -4 -12 61 c-16 80 -28 92 -82 79 -40 -11 -41 -12
-36 -48 3 -21 2 -42 -2 -48 -9 -15 -153 -73 -170 -69 -9 2 -29 -3 -45 -11 -17
-8 -71 -20 -120 -26 l-91 -11 -6 -70 c-6 -56 -4 -72 8 -82 9 -7 13 -19 10 -26
-7 -18 -67 -26 -189 -26 l-87 0 -16 31 c-8 17 -15 32 -15 34 0 1 30 5 68 9
106 9 136 20 165 62 17 24 23 39 16 44 -8 5 -7 8 1 11 10 3 10 97 0 448 -6
244 -15 449 -18 455 -7 11 -11 11 -200 15 -83 1 -127 -2 -137 -10 -18 -15 -38
-4 -70 40 -14 19 -25 29 -25 22z m98 -266 c-2 -57 0 -102 3 -100 7 4 24 -475
17 -481 -2 -2 -10 5 -17 17 -7 11 -8 17 -2 13 6 -3 11 1 11 10 0 9 -4 14 -9
11 -16 -11 -24 244 -18 602 0 17 5 32 9 32 5 0 8 -47 6 -104z m90 -69 c14 4
14 3 2 -5 -16 -12 -30 -7 -29 11 0 9 2 9 5 0 3 -7 13 -9 22 -6z m-31 -36 c7
-13 12 -33 12 -45 -2 -20 -2 -20 -6 1 -2 13 -12 28 -21 35 -9 7 -18 19 -19 26
-5 20 20 9 34 -17z m103 -45 c0 -2 -7 -7 -16 -10 -8 -3 -12 -2 -9 4 6 10 25
14 25 6z m-114 -77 l-14 -44 -1 42 c-1 25 4 43 12 46 18 6 18 5 3 -44z m794
-399 c0 -5 -18 -21 -40 -35 -32 -20 -40 -31 -40 -55 0 -31 -30 -60 -64 -60
-10 0 -48 -16 -84 -36 -67 -38 -84 -36 -75 7 3 20 20 33 69 57 36 18 64 38 64
47 0 8 1 15 3 15 1 0 38 16 82 35 92 40 85 38 85 25z m113 -120 c6 -32 6 -34
-8 -16 -8 11 -15 36 -14 55 0 28 2 32 8 16 4 -11 11 -36 14 -55z m-765 23
c-21 -2 -57 -2 -80 0 -24 2 -7 4 37 4 44 0 63 -2 43 -4z m-488 -132 c0 -6 -5
-13 -11 -16 -6 -4 -8 -13 -5 -21 3 -8 1 -14 -4 -14 -11 0 -12 6 -4 38 6 21 24
31 24 13z m100 -101 c0 -5 -2 -10 -4 -10 -3 0 -8 5 -11 10 -3 6 -1 10 4 10 6
0 11 -4 11 -10z m596 -56 c-8 -27 -15 -42 -15 -34 -1 22 20 93 25 87 3 -3 -1
-27 -10 -53z m-241 -24 c0 -47 -2 -57 -11 -45 -10 14 -12 14 -19 -2 -6 -16 -8
-16 -15 4 -5 12 -7 34 -4 50 6 35 24 55 25 28 0 -18 1 -18 9 3 5 12 11 22 12
22 2 0 3 -27 3 -60z m-550 12 c-3 -7 -5 -32 -5 -53 0 -24 -4 -38 -10 -34 -6 3
-10 -4 -10 -17 -1 -21 -1 -22 -12 -4 -10 18 -13 99 -4 114 9 14 47 9 41 -6z
m759 -24 c4 -24 3 -38 -4 -38 -5 0 -10 19 -10 42 0 49 5 47 14 -4z m-592 -3
c-2 -19 1 -41 7 -49 9 -10 5 -13 -18 -14 -27 -1 -29 1 -27 39 1 22 -2 39 -8
39 -17 0 17 20 34 20 12 0 15 -8 12 -35z m-355 -42 c-3 -10 -5 -4 -5 12 0 17
2 24 5 18 2 -7 2 -21 0 -30z m517 -48 c3 -13 19 -36 34 -51 27 -26 27 -26 3
-21 -13 3 -31 1 -41 -5 -10 -7 -25 -8 -36 -3 -18 7 -18 8 -2 12 17 4 17 6 1
21 -9 9 -18 12 -20 7 -2 -6 -8 -17 -14 -25 -8 -11 -12 -12 -16 -2 -2 6 -11 12
-19 12 -8 0 -14 -6 -14 -12 0 -9 -3 -10 -8 -2 -4 6 -14 14 -22 17 -8 3 6 6 31
6 46 1 69 16 82 54 9 25 34 21 41 -8z m-144 -105 c0 -5 -2 -10 -4 -10 -3 0 -8
5 -11 10 -3 6 -1 10 4 10 6 0 11 -4 11 -10z m1066 -270 c16 0 19 -16 5 -25 -5
-3 -12 -19 -16 -35 -4 -17 -11 -30 -16 -30 -5 0 -9 -12 -9 -26 0 -19 -4 -25
-15 -20 -14 5 -20 -6 -16 -28 3 -13 -20 -36 -30 -30 -5 3 -21 -8 -36 -23 -15
-16 -24 -21 -20 -11 3 10 0 19 -9 22 -13 5 -12 9 2 31 10 15 12 25 5 25 -6 0
-11 5 -11 10 0 6 6 10 13 10 6 0 18 13 25 28 19 44 78 103 95 96 11 -4 15 0
13 13 -2 10 -1 12 1 6 3 -7 11 -13 19 -13z m-274 -357 c10 -9 18 -21 18 -26 0
-6 -10 -2 -21 9 -22 19 -22 19 -10 -3 10 -20 9 -22 -5 -16 -11 4 -15 3 -10 -5
3 -6 2 -13 -4 -17 -5 -3 -10 -1 -10 4 0 6 -8 11 -17 11 -15 0 -16 -2 -3 -10
13 -8 13 -10 -2 -10 -9 0 -30 12 -45 26 -15 14 -21 22 -13 18 29 -16 52 -11
61 13 10 27 35 30 61 6z m-965 -96 c-8 -12 -25 -24 -38 -25 -24 -4 -24 -4 5
27 32 33 56 32 33 -2z"/>
<path d="M601 1234 c0 -11 3 -14 6 -6 3 7 2 16 -1 19 -3 4 -6 -2 -5 -13z"/>
<path d="M703 2653 c9 -2 23 -2 30 0 6 3 -1 5 -18 5 -16 0 -22 -2 -12 -5z"/>
<path d="M780 2654 c28 -8 210 -20 202 -13 -4 4 -54 9 -112 12 -58 3 -98 3
-90 1z"/>
<path d="M261 2623 c-35 -2 -69 -9 -75 -16 -51 -53 -61 -107 -21 -125 21 -10
23 -9 18 6 -3 9 -13 25 -21 35 -8 9 -12 20 -9 24 4 3 7 1 7 -5 0 -7 5 -12 11
-12 6 0 9 7 6 15 -5 11 -1 12 18 5 15 -6 27 -6 30 0 9 15 65 7 65 -10 1 -8 8
-3 16 13 8 15 22 27 32 27 10 0 28 7 41 17 13 9 52 19 85 23 53 6 49 7 -39 7
-55 -1 -129 -2 -164 -4z m96 -19 c-3 -3 -12 -4 -19 -1 -8 3 -5 6 6 6 11 1 17
-2 13 -5z"/>
<path d="M428 2593 c7 -3 16 -2 19 1 4 3 -2 6 -13 5 -11 0 -14 -3 -6 -6z"/>
<path d="M172 1960 c0 -19 2 -27 5 -17 2 9 2 25 0 35 -3 9 -5 1 -5 -18z"/>
<path d="M211 1974 c0 -11 3 -14 6 -6 3 7 2 16 -1 19 -3 4 -6 -2 -5 -13z"/>
<path d="M183 1700 c0 -30 2 -43 4 -27 2 15 2 39 0 55 -2 15 -4 2 -4 -28z"/>
</g>
</svg>
