<?xml version="1.0" encoding="UTF-8"?>
<svg xmlns="http://www.w3.org/2000/svg" xmlns:xlink="http://www.w3.org/1999/xlink" width="20px" height="34px" viewBox="0 0 20 34" version="1.1">
<g id="surface1">
<path style=" stroke:none;fill-rule:nonzero;fill:rgb(0%,0%,0%);fill-opacity:1;" d="M 3.191406 0.222656 C 2.988281 0.253906 2.894531 0.296875 2.980469 0.308594 C 3.074219 0.328125 3.03125 0.371094 2.882812 0.4375 C 2.734375 0.488281 2.5625 0.519531 2.488281 0.488281 C 2.414062 0.457031 2.277344 0.5 2.179688 0.574219 C 2.019531 0.691406 2.011719 0.765625 2.105469 1.074219 C 2.222656 1.433594 2.308594 3.113281 2.222656 3.390625 C 2.203125 3.472656 2.351562 3.625 2.605469 3.761719 C 2.9375 3.929688 3.042969 4.058594 3.0625 4.304688 C 3.085938 4.484375 3.128906 4.695312 3.160156 4.78125 C 3.203125 4.867188 3.210938 5.152344 3.203125 5.417969 L 3.171875 5.90625 L 3.605469 5.863281 L 4.042969 5.824219 L 4.011719 4.910156 L 3.988281 3.996094 L 4.445312 3.6875 C 4.796875 3.453125 4.882812 3.335938 4.820312 3.199219 C 4.777344 3.101562 4.734375 2.464844 4.722656 1.765625 C 4.710938 0.648438 4.691406 0.488281 4.511719 0.394531 C 4.210938 0.222656 3.605469 0.148438 3.191406 0.222656 Z M 3.191406 0.222656 "/>
<path style=" stroke:none;fill-rule:nonzero;fill:rgb(0%,0%,0%);fill-opacity:1;" d="M 6.382812 5.824219 C 6.382812 5.898438 6.222656 5.949219 6.011719 5.949219 C 5.808594 5.949219 5.636719 5.992188 5.636719 6.054688 C 5.636719 6.109375 5.703125 6.128906 5.777344 6.097656 C 5.863281 6.066406 5.96875 6.164062 6.042969 6.320312 C 6.105469 6.46875 6.210938 6.585938 6.277344 6.585938 C 6.445312 6.585938 6.402344 6.394531 6.203125 6.28125 C 5.980469 6.164062 6.0625 6.023438 6.308594 6.121094 C 6.765625 6.289062 6.828125 6.621094 6.957031 9.445312 C 7.03125 10.945312 7.097656 13.121094 7.105469 14.289062 L 7.128906 16.414062 L 6.828125 16.839844 L 6.53125 17.265625 L 5.53125 17.351562 C 4.980469 17.394531 4.054688 17.414062 3.488281 17.402344 C 2.703125 17.382812 2.488281 17.402344 2.574219 17.5 C 2.628906 17.5625 2.746094 17.59375 2.828125 17.5625 C 2.914062 17.53125 3.105469 17.542969 3.253906 17.574219 C 3.480469 17.636719 3.519531 17.691406 3.457031 17.882812 C 3.414062 18.007812 3.382812 18.191406 3.382812 18.285156 C 3.394531 18.421875 3.222656 18.476562 2.519531 18.539062 C 2.042969 18.582031 1.519531 18.679688 1.351562 18.765625 C 0.703125 19.105469 0.46875 19.976562 0.808594 20.8125 C 1.011719 21.324219 1.328125 21.546875 1.96875 21.644531 C 2.4375 21.707031 2.445312 21.707031 2.445312 22.109375 C 2.445312 22.332031 2.554688 22.738281 2.679688 23.003906 C 2.808594 23.257812 2.894531 23.492188 2.863281 23.511719 C 2.351562 23.925781 1.746094 24.332031 1.648438 24.332031 C 1.574219 24.332031 1.488281 24.257812 1.457031 24.171875 C 1.371094 23.96875 0.894531 24.128906 0.488281 24.5 C 0.0742188 24.894531 0.210938 24.9375 0.789062 24.597656 C 1.191406 24.363281 1.308594 24.332031 1.4375 24.4375 C 1.671875 24.640625 1.628906 24.757812 1.289062 24.875 C 0.9375 25 0.371094 25.660156 0.480469 25.828125 C 0.519531 25.882812 0.746094 25.722656 1 25.445312 C 1.5 24.914062 1.597656 24.882812 1.851562 25.171875 C 2.074219 25.425781 2 25.59375 1.519531 25.925781 C 1.222656 26.125 1.179688 26.203125 1.320312 26.222656 C 1.414062 26.242188 1.671875 26.136719 1.871094 25.976562 C 2.160156 25.765625 2.222656 25.648438 2.171875 25.457031 C 2.128906 25.253906 2.179688 25.179688 2.5 25.03125 C 3.136719 24.722656 3.402344 24.4375 3.402344 24.054688 C 3.402344 23.800781 3.457031 23.695312 3.617188 23.640625 C 3.925781 23.546875 3.988281 23.121094 3.777344 22.546875 C 3.671875 22.269531 3.542969 22.003906 3.5 21.941406 C 3.339844 21.769531 3.394531 21.589844 3.597656 21.644531 C 3.691406 21.664062 3.980469 21.644531 4.222656 21.589844 L 4.671875 21.484375 L 4.445312 21.875 C 4.085938 22.515625 4.425781 22.9375 5.019531 22.597656 C 5.308594 22.441406 5.339844 22.441406 5.660156 22.632812 C 5.851562 22.75 6.210938 22.863281 6.457031 22.90625 C 6.710938 22.9375 6.9375 23.015625 6.96875 23.054688 C 7 23.109375 7.128906 23.121094 7.253906 23.078125 C 7.425781 23.035156 7.457031 23.054688 7.382812 23.171875 C 7.042969 23.734375 6.605469 24.351562 6.222656 24.808594 C 5.988281 25.097656 5.605469 25.59375 5.382812 25.902344 C 5.160156 26.210938 4.925781 26.445312 4.851562 26.425781 C 4.660156 26.359375 4.363281 26.773438 4.414062 27.03125 C 4.457031 27.1875 4.339844 27.378906 4.042969 27.699219 C 3.679688 28.082031 3.5625 28.144531 3.308594 28.09375 C 3.042969 28.039062 2.980469 28.082031 2.753906 28.441406 C 2.617188 28.667969 2.511719 28.890625 2.53125 28.933594 C 2.605469 29.164062 2.308594 29.429688 1.980469 29.429688 C 1.554688 29.429688 1.488281 29.589844 1.425781 30.84375 C 1.402344 31.300781 1.363281 31.703125 1.339844 31.757812 C 1.308594 31.8125 1.0625 31.90625 0.796875 31.980469 C 0.0429688 32.195312 0.0859375 32.332031 0.863281 32.246094 C 1.820312 32.140625 1.871094 32.085938 1.957031 31.355469 C 2.0625 30.453125 2.265625 29.804688 2.445312 29.804688 C 2.628906 29.804688 2.628906 29.910156 2.511719 31.355469 L 2.425781 32.269531 L 1.882812 32.511719 C 1.457031 32.691406 1.382812 32.765625 1.542969 32.800781 C 1.789062 32.863281 2.839844 32.640625 2.925781 32.511719 C 2.957031 32.46875 3.054688 32.023438 3.136719 31.535156 C 3.328125 30.527344 3.457031 30.175781 3.636719 30.175781 C 3.863281 30.175781 4.363281 29.613281 4.363281 29.355469 C 4.363281 29.1875 4.425781 29.113281 4.574219 29.113281 C 4.703125 29.113281 4.902344 29.039062 5.03125 28.953125 C 5.265625 28.804688 5.289062 28.816406 5.46875 29.113281 C 5.5625 29.292969 5.722656 29.429688 5.808594 29.429688 C 6 29.429688 6.554688 30.589844 6.710938 31.332031 C 6.808594 31.789062 6.851562 31.855469 7.136719 31.894531 C 7.308594 31.929688 7.628906 31.863281 7.851562 31.757812 L 8.246094 31.578125 L 7.839844 31.566406 C 7.617188 31.554688 7.425781 31.503906 7.402344 31.429688 C 7.382812 31.355469 7.296875 30.960938 7.203125 30.566406 C 6.957031 29.558594 6.746094 29.144531 6.394531 29.027344 C 5.957031 28.878906 5.894531 28.507812 6.265625 28.316406 C 6.425781 28.242188 6.902344 27.71875 7.308594 27.179688 C 7.722656 26.636719 8.519531 25.59375 9.085938 24.863281 C 9.808594 23.925781 10.128906 23.417969 10.171875 23.128906 C 10.210938 22.917969 10.277344 22.738281 10.328125 22.738281 C 10.382812 22.738281 10.425781 22.640625 10.425781 22.523438 C 10.425781 22.40625 10.480469 22.3125 10.53125 22.3125 C 10.597656 22.3125 10.636719 22.21875 10.636719 22.101562 C 10.636719 21.953125 10.710938 21.886719 10.894531 21.886719 C 11.03125 21.886719 11.265625 21.792969 11.425781 21.664062 C 11.746094 21.410156 11.914062 21.472656 11.914062 21.84375 C 11.914062 21.992188 12.03125 22.34375 12.179688 22.632812 L 12.445312 23.164062 L 12.136719 23.164062 C 11.914062 23.164062 11.679688 23.300781 11.289062 23.671875 C 10.914062 24.023438 10.660156 24.183594 10.457031 24.171875 C 10.234375 24.171875 10.117188 24.257812 9.925781 24.597656 C 9.480469 25.382812 9.671875 25.5625 10.128906 24.796875 C 10.296875 24.53125 10.46875 24.34375 10.519531 24.375 C 10.574219 24.40625 10.605469 24.640625 10.597656 24.882812 C 10.585938 25.339844 10.585938 25.339844 10.03125 25.5 C 9.445312 25.660156 9.289062 25.820312 9.710938 25.820312 C 10.148438 25.820312 10.746094 25.59375 10.746094 25.445312 C 10.746094 25.265625 11.222656 25.222656 11.328125 25.382812 C 11.363281 25.445312 11.203125 25.679688 10.980469 25.914062 C 10.679688 26.222656 10.617188 26.351562 10.746094 26.351562 C 10.96875 26.351562 11.617188 25.679688 11.585938 25.488281 C 11.574219 25.40625 11.828125 25.0625 12.160156 24.722656 C 12.691406 24.183594 12.765625 24.042969 12.765625 23.683594 C 12.765625 23.34375 12.808594 23.246094 13.011719 23.171875 C 13.5 22.980469 13.5625 22.78125 13.351562 22.175781 C 13.246094 21.867188 13.097656 21.546875 13.011719 21.453125 C 12.894531 21.304688 12.902344 21.261719 13.097656 21.078125 C 13.363281 20.847656 13.710938 20.125 13.722656 19.816406 C 13.722656 19.65625 13.96875 19.445312 14.574219 19.070312 C 15.042969 18.773438 15.445312 18.464844 15.480469 18.382812 C 15.585938 18.042969 16.722656 17.625 16.871094 17.871094 C 16.988281 18.050781 16.671875 18.816406 16.414062 18.988281 C 16.234375 19.105469 16.171875 19.242188 16.171875 19.539062 C 16.179688 20.132812 16.457031 21.144531 16.648438 21.292969 C 16.808594 21.410156 16.820312 21.460938 16.691406 21.6875 C 16.605469 21.824219 16.488281 21.972656 16.425781 22.015625 C 16.246094 22.132812 15.160156 23.734375 15.328125 23.640625 C 15.445312 23.566406 15.457031 23.578125 15.351562 23.714844 C 15.277344 23.800781 15.246094 23.894531 15.277344 23.9375 C 15.339844 24 14.710938 24.949219 13.882812 26.011719 C 13.574219 26.402344 12.980469 26.988281 12.894531 26.988281 C 12.722656 26.988281 12.339844 27.519531 12.339844 27.753906 C 12.339844 27.859375 12.265625 27.976562 12.179688 28.007812 C 12.097656 28.050781 12.019531 28.125 12.019531 28.199219 C 12.019531 28.347656 11.554688 28.792969 11.402344 28.792969 C 11.246094 28.792969 11.160156 28.964844 11.019531 29.578125 C 10.902344 30.101562 10.882812 30.121094 10.574219 30.089844 L 10.246094 30.058594 L 10.011719 31.097656 C 9.871094 31.671875 9.746094 32.234375 9.710938 32.351562 C 9.679688 32.480469 9.4375 32.683594 9.117188 32.832031 C 8.160156 33.308594 8.363281 33.5 9.480469 33.191406 C 10.160156 33 10.117188 33.054688 10.796875 31.257812 C 11.054688 30.558594 11.160156 30.441406 11.414062 30.484375 C 11.5625 30.503906 11.902344 30.035156 11.914062 29.804688 C 11.914062 29.6875 11.988281 29.496094 12.085938 29.378906 C 12.203125 29.21875 12.277344 29.199219 12.425781 29.28125 C 12.671875 29.441406 12.710938 29.792969 12.5 29.960938 C 12.414062 30.035156 12.339844 30.226562 12.339844 30.398438 C 12.339844 30.609375 12.246094 30.769531 11.988281 30.960938 C 11.703125 31.183594 11.5625 31.4375 11.289062 32.234375 C 10.980469 33.109375 10.902344 33.234375 10.660156 33.289062 C 10.5 33.332031 10.234375 33.46875 10.054688 33.617188 L 9.734375 33.882812 L 10.085938 33.894531 C 10.289062 33.894531 10.691406 33.820312 10.988281 33.734375 C 11.519531 33.574219 11.554688 33.53125 11.882812 32.851562 C 12.371094 31.820312 12.679688 31.332031 12.945312 31.097656 C 13.085938 30.992188 13.222656 30.757812 13.277344 30.578125 C 13.414062 30.046875 13.617188 30.078125 13.617188 30.632812 C 13.617188 30.898438 13.5625 31.132812 13.5 31.152344 C 13.414062 31.183594 13.4375 31.4375 13.5625 32.023438 C 13.710938 32.691406 13.796875 32.875 14 32.957031 C 14.210938 33.066406 14.351562 33 15.042969 32.523438 L 15.839844 31.980469 L 16.03125 32.300781 C 16.308594 32.777344 16.53125 32.726562 16.457031 32.183594 C 16.425781 31.949219 16.382812 31.726562 16.351562 31.703125 C 16.210938 31.566406 15.414062 31.664062 15.019531 31.863281 C 14.777344 31.980469 14.542969 32.085938 14.488281 32.085938 C 14.339844 32.085938 14.160156 31.207031 14.265625 31.003906 C 14.414062 30.738281 14.382812 30.375 14.191406 30.164062 C 14.042969 30.003906 14.0625 29.972656 14.4375 29.792969 C 14.863281 29.578125 14.945312 29.464844 17.371094 25.976562 C 18.710938 24.042969 18.839844 23.820312 18.808594 23.449219 C 18.789062 23.152344 18.828125 23.015625 18.957031 22.9375 C 19.0625 22.875 19.105469 22.757812 19.074219 22.632812 C 19.03125 22.492188 19.085938 22.355469 19.210938 22.269531 C 19.382812 22.140625 19.382812 22.101562 19.265625 21.953125 C 19.136719 21.800781 19.148438 21.75 19.296875 21.578125 C 19.402344 21.460938 19.445312 21.3125 19.402344 21.195312 C 19.351562 21.070312 19.425781 20.941406 19.628906 20.773438 L 19.9375 20.539062 L 19.796875 19.75 C 19.648438 18.878906 19.445312 18.488281 19.171875 18.488281 C 19.0625 18.488281 18.796875 18.296875 18.5625 18.0625 L 18.148438 17.636719 L 18.554688 17.285156 C 18.902344 16.988281 18.96875 16.863281 19.019531 16.382812 C 19.0625 15.851562 19.054688 15.808594 18.703125 15.480469 C 18.394531 15.195312 18.253906 15.128906 17.957031 15.171875 L 17.585938 15.214844 L 17.457031 14.566406 C 17.289062 13.71875 17.160156 13.589844 16.585938 13.726562 C 16.160156 13.84375 16.148438 13.855469 16.203125 14.238281 C 16.234375 14.460938 16.222656 14.683594 16.179688 14.746094 C 16.085938 14.90625 14.554688 15.523438 14.371094 15.480469 C 14.277344 15.460938 14.0625 15.511719 13.894531 15.597656 C 13.710938 15.683594 13.136719 15.808594 12.617188 15.875 L 11.648438 15.992188 L 11.585938 16.734375 C 11.519531 17.328125 11.542969 17.5 11.671875 17.605469 C 11.765625 17.679688 11.808594 17.808594 11.777344 17.882812 C 11.703125 18.074219 11.0625 18.15625 9.765625 18.15625 L 8.839844 18.15625 L 8.671875 17.828125 C 8.585938 17.648438 8.511719 17.488281 8.511719 17.46875 C 8.511719 17.457031 8.828125 17.414062 9.234375 17.371094 C 10.363281 17.277344 10.679688 17.160156 10.988281 16.714844 C 11.171875 16.457031 11.234375 16.296875 11.160156 16.246094 C 11.074219 16.191406 11.085938 16.160156 11.171875 16.128906 C 11.277344 16.097656 11.277344 15.097656 11.171875 11.367188 C 11.105469 8.777344 11.011719 6.597656 10.980469 6.535156 C 10.902344 6.417969 10.863281 6.417969 8.851562 6.375 C 7.96875 6.363281 7.5 6.394531 7.394531 6.480469 C 7.203125 6.640625 6.988281 6.523438 6.648438 6.054688 C 6.5 5.855469 6.382812 5.75 6.382812 5.824219 Z M 7.425781 8.648438 C 7.402344 9.253906 7.425781 9.734375 7.457031 9.710938 C 7.53125 9.667969 7.710938 14.757812 7.636719 14.820312 C 7.617188 14.84375 7.53125 14.769531 7.457031 14.640625 C 7.382812 14.523438 7.371094 14.460938 7.4375 14.503906 C 7.5 14.535156 7.554688 14.492188 7.554688 14.398438 C 7.554688 14.300781 7.511719 14.25 7.457031 14.28125 C 7.289062 14.398438 7.203125 11.6875 7.265625 7.882812 C 7.265625 7.703125 7.320312 7.542969 7.363281 7.542969 C 7.414062 7.542969 7.445312 8.042969 7.425781 8.648438 Z M 8.382812 9.382812 C 8.53125 9.339844 8.53125 9.351562 8.402344 9.433594 C 8.234375 9.5625 8.085938 9.507812 8.097656 9.316406 C 8.097656 9.222656 8.117188 9.222656 8.148438 9.316406 C 8.179688 9.390625 8.289062 9.414062 8.382812 9.382812 Z M 8.054688 9.765625 C 8.128906 9.902344 8.179688 10.113281 8.179688 10.242188 C 8.160156 10.453125 8.160156 10.453125 8.117188 10.230469 C 8.097656 10.09375 7.988281 9.933594 7.894531 9.859375 C 7.796875 9.785156 7.703125 9.65625 7.691406 9.582031 C 7.636719 9.371094 7.902344 9.488281 8.054688 9.765625 Z M 9.148438 10.242188 C 9.148438 10.265625 9.074219 10.316406 8.980469 10.347656 C 8.894531 10.378906 8.851562 10.371094 8.882812 10.304688 C 8.945312 10.199219 9.148438 10.15625 9.148438 10.242188 Z M 7.9375 11.0625 L 7.789062 11.527344 L 7.777344 11.082031 C 7.765625 10.816406 7.820312 10.625 7.902344 10.59375 C 8.097656 10.53125 8.097656 10.539062 7.9375 11.0625 Z M 16.382812 15.300781 C 16.382812 15.351562 16.191406 15.523438 15.957031 15.671875 C 15.617188 15.882812 15.53125 16 15.53125 16.257812 C 15.53125 16.585938 15.210938 16.894531 14.851562 16.894531 C 14.746094 16.894531 14.339844 17.0625 13.957031 17.277344 C 13.246094 17.679688 13.0625 17.660156 13.160156 17.203125 C 13.191406 16.988281 13.371094 16.851562 13.894531 16.597656 C 14.277344 16.40625 14.574219 16.191406 14.574219 16.097656 C 14.574219 16.011719 14.585938 15.9375 14.605469 15.9375 C 14.617188 15.9375 15.011719 15.765625 15.480469 15.566406 C 16.457031 15.140625 16.382812 15.160156 16.382812 15.300781 Z M 17.585938 16.574219 C 17.648438 16.914062 17.648438 16.9375 17.5 16.746094 C 17.414062 16.628906 17.339844 16.363281 17.351562 16.160156 C 17.351562 15.863281 17.371094 15.820312 17.4375 15.992188 C 17.480469 16.109375 17.554688 16.375 17.585938 16.574219 Z M 9.445312 16.332031 C 9.222656 16.351562 8.839844 16.351562 8.597656 16.332031 C 8.339844 16.308594 8.519531 16.289062 8.988281 16.289062 C 9.457031 16.289062 9.660156 16.308594 9.445312 16.332031 Z M 4.253906 17.734375 C 4.253906 17.796875 4.203125 17.871094 4.136719 17.902344 C 4.074219 17.945312 4.054688 18.042969 4.085938 18.125 C 4.117188 18.210938 4.097656 18.273438 4.042969 18.273438 C 3.925781 18.273438 3.914062 18.210938 4 17.871094 C 4.0625 17.648438 4.253906 17.542969 4.253906 17.734375 Z M 5.320312 18.804688 C 5.320312 18.859375 5.296875 18.914062 5.277344 18.914062 C 5.246094 18.914062 5.191406 18.859375 5.160156 18.804688 C 5.128906 18.742188 5.148438 18.699219 5.203125 18.699219 C 5.265625 18.699219 5.320312 18.742188 5.320312 18.804688 Z M 11.660156 19.402344 C 11.574219 19.6875 11.5 19.847656 11.5 19.761719 C 11.488281 19.527344 11.710938 18.773438 11.765625 18.839844 C 11.796875 18.871094 11.753906 19.125 11.660156 19.402344 Z M 9.097656 19.65625 C 9.097656 20.15625 9.074219 20.261719 8.980469 20.132812 C 8.871094 19.984375 8.851562 19.984375 8.777344 20.15625 C 8.710938 20.324219 8.691406 20.324219 8.617188 20.113281 C 8.5625 19.984375 8.542969 19.75 8.574219 19.582031 C 8.636719 19.210938 8.828125 18.996094 8.839844 19.285156 C 8.839844 19.476562 8.851562 19.476562 8.9375 19.253906 C 8.988281 19.125 9.054688 19.019531 9.0625 19.019531 C 9.085938 19.019531 9.097656 19.304688 9.097656 19.65625 Z M 3.246094 19.527344 C 3.210938 19.601562 3.191406 19.867188 3.191406 20.09375 C 3.191406 20.347656 3.148438 20.496094 3.085938 20.453125 C 3.019531 20.421875 2.980469 20.496094 2.980469 20.632812 C 2.96875 20.855469 2.96875 20.867188 2.851562 20.675781 C 2.746094 20.484375 2.710938 19.625 2.808594 19.464844 C 2.902344 19.316406 3.308594 19.371094 3.246094 19.527344 Z M 11.320312 19.785156 C 11.363281 20.039062 11.351562 20.1875 11.277344 20.1875 C 11.222656 20.1875 11.171875 19.984375 11.171875 19.742188 C 11.171875 19.21875 11.222656 19.242188 11.320312 19.785156 Z M 5.019531 19.816406 C 5 20.015625 5.03125 20.25 5.097656 20.335938 C 5.191406 20.441406 5.148438 20.472656 4.902344 20.484375 C 4.617188 20.496094 4.597656 20.472656 4.617188 20.070312 C 4.628906 19.835938 4.597656 19.65625 4.53125 19.65625 C 4.351562 19.65625 4.710938 19.445312 4.894531 19.445312 C 5.019531 19.445312 5.054688 19.527344 5.019531 19.816406 Z M 1.246094 20.261719 C 1.210938 20.367188 1.191406 20.304688 1.191406 20.132812 C 1.191406 19.953125 1.210938 19.878906 1.246094 19.941406 C 1.265625 20.015625 1.265625 20.167969 1.246094 20.261719 Z M 6.746094 20.773438 C 6.777344 20.910156 6.945312 21.15625 7.105469 21.3125 C 7.394531 21.589844 7.394531 21.589844 7.136719 21.535156 C 7 21.503906 6.808594 21.527344 6.703125 21.589844 C 6.597656 21.664062 6.4375 21.675781 6.320312 21.621094 C 6.128906 21.546875 6.128906 21.535156 6.296875 21.496094 C 6.480469 21.453125 6.480469 21.429688 6.308594 21.269531 C 6.210938 21.175781 6.117188 21.144531 6.097656 21.195312 C 6.074219 21.261719 6.011719 21.378906 5.945312 21.460938 C 5.863281 21.578125 5.820312 21.589844 5.777344 21.484375 C 5.753906 21.421875 5.660156 21.355469 5.574219 21.355469 C 5.488281 21.355469 5.425781 21.421875 5.425781 21.484375 C 5.425781 21.578125 5.394531 21.589844 5.339844 21.503906 C 5.296875 21.441406 5.191406 21.355469 5.105469 21.324219 C 5.019531 21.292969 5.171875 21.261719 5.4375 21.261719 C 5.925781 21.25 6.171875 21.089844 6.308594 20.6875 C 6.402344 20.421875 6.671875 20.464844 6.746094 20.773438 Z M 5.210938 21.886719 C 5.210938 21.941406 5.191406 21.992188 5.171875 21.992188 C 5.136719 21.992188 5.085938 21.941406 5.054688 21.886719 C 5.019531 21.824219 5.042969 21.78125 5.097656 21.78125 C 5.160156 21.78125 5.210938 21.824219 5.210938 21.886719 Z M 16.554688 24.757812 C 16.722656 24.757812 16.753906 24.925781 16.605469 25.023438 C 16.554688 25.054688 16.480469 25.222656 16.4375 25.394531 C 16.394531 25.574219 16.320312 25.710938 16.265625 25.710938 C 16.210938 25.710938 16.171875 25.839844 16.171875 25.988281 C 16.171875 26.191406 16.128906 26.253906 16.011719 26.203125 C 15.863281 26.148438 15.796875 26.265625 15.839844 26.5 C 15.871094 26.636719 15.628906 26.882812 15.519531 26.816406 C 15.46875 26.785156 15.296875 26.902344 15.136719 27.0625 C 14.980469 27.230469 14.882812 27.285156 14.925781 27.179688 C 14.957031 27.074219 14.925781 26.976562 14.828125 26.945312 C 14.691406 26.890625 14.703125 26.847656 14.851562 26.617188 C 14.957031 26.457031 14.980469 26.351562 14.902344 26.351562 C 14.839844 26.351562 14.789062 26.296875 14.789062 26.242188 C 14.789062 26.179688 14.851562 26.136719 14.925781 26.136719 C 14.988281 26.136719 15.117188 26 15.191406 25.839844 C 15.394531 25.371094 16.019531 24.746094 16.203125 24.820312 C 16.320312 24.863281 16.363281 24.820312 16.339844 24.683594 C 16.320312 24.574219 16.328125 24.554688 16.351562 24.617188 C 16.382812 24.691406 16.46875 24.757812 16.554688 24.757812 Z M 13.636719 28.550781 C 13.746094 28.644531 13.828125 28.773438 13.828125 28.824219 C 13.828125 28.890625 13.722656 28.847656 13.605469 28.730469 C 13.371094 28.527344 13.371094 28.527344 13.5 28.761719 C 13.605469 28.972656 13.597656 28.996094 13.445312 28.933594 C 13.328125 28.890625 13.289062 28.898438 13.339844 28.984375 C 13.371094 29.046875 13.363281 29.125 13.296875 29.164062 C 13.246094 29.199219 13.191406 29.175781 13.191406 29.125 C 13.191406 29.058594 13.105469 29.007812 13.011719 29.007812 C 12.851562 29.007812 12.839844 29.027344 12.980469 29.113281 C 13.117188 29.199219 13.117188 29.21875 12.957031 29.21875 C 12.863281 29.21875 12.636719 29.089844 12.480469 28.941406 C 12.320312 28.792969 12.253906 28.707031 12.339844 28.75 C 12.648438 28.921875 12.894531 28.867188 12.988281 28.613281 C 13.097656 28.328125 13.363281 28.292969 13.636719 28.550781 Z M 3.371094 29.570312 C 3.289062 29.695312 3.105469 29.824219 2.96875 29.835938 C 2.710938 29.878906 2.710938 29.878906 3.019531 29.546875 C 3.363281 29.199219 3.617188 29.207031 3.371094 29.570312 Z M 3.371094 29.570312 "/>
<path style=" stroke:none;fill-rule:nonzero;fill:rgb(0%,0%,0%);fill-opacity:1;" d="M 6.394531 20.890625 C 6.394531 21.003906 6.425781 21.039062 6.457031 20.953125 C 6.488281 20.878906 6.480469 20.78125 6.445312 20.75 C 6.414062 20.707031 6.382812 20.773438 6.394531 20.890625 Z M 6.394531 20.890625 "/>
<path style=" stroke:none;fill-rule:nonzero;fill:rgb(0%,0%,0%);fill-opacity:1;" d="M 7.480469 5.8125 C 7.574219 5.832031 7.722656 5.832031 7.796875 5.8125 C 7.863281 5.78125 7.789062 5.757812 7.605469 5.757812 C 7.4375 5.757812 7.371094 5.78125 7.480469 5.8125 Z M 7.480469 5.8125 "/>
<path style=" stroke:none;fill-rule:nonzero;fill:rgb(0%,0%,0%);fill-opacity:1;" d="M 8.296875 5.800781 C 8.597656 5.886719 10.53125 6.015625 10.445312 5.9375 C 10.402344 5.898438 9.871094 5.84375 9.253906 5.8125 C 8.636719 5.78125 8.210938 5.78125 8.296875 5.800781 Z M 8.296875 5.800781 "/>
<path style=" stroke:none;fill-rule:nonzero;fill:rgb(0%,0%,0%);fill-opacity:1;" d="M 2.777344 6.128906 C 2.402344 6.152344 2.042969 6.226562 1.980469 6.300781 C 1.4375 6.863281 1.328125 7.4375 1.753906 7.628906 C 1.980469 7.734375 2 7.722656 1.945312 7.566406 C 1.914062 7.46875 1.808594 7.300781 1.722656 7.191406 C 1.636719 7.097656 1.597656 6.980469 1.628906 6.9375 C 1.671875 6.90625 1.703125 6.925781 1.703125 6.992188 C 1.703125 7.066406 1.753906 7.117188 1.820312 7.117188 C 1.882812 7.117188 1.914062 7.042969 1.882812 6.960938 C 1.828125 6.84375 1.871094 6.832031 2.074219 6.90625 C 2.234375 6.96875 2.363281 6.96875 2.394531 6.90625 C 2.488281 6.746094 3.085938 6.832031 3.085938 7.011719 C 3.097656 7.097656 3.171875 7.042969 3.253906 6.875 C 3.339844 6.714844 3.488281 6.585938 3.597656 6.585938 C 3.703125 6.585938 3.894531 6.511719 4.03125 6.40625 C 4.171875 6.3125 4.585938 6.203125 4.9375 6.164062 C 5.5 6.097656 5.457031 6.089844 4.519531 6.089844 C 3.9375 6.097656 3.148438 6.109375 2.777344 6.128906 Z M 3.796875 6.332031 C 3.765625 6.363281 3.671875 6.375 3.597656 6.34375 C 3.511719 6.3125 3.542969 6.28125 3.660156 6.28125 C 3.777344 6.269531 3.839844 6.300781 3.796875 6.332031 Z M 3.796875 6.332031 "/>
<path style=" stroke:none;fill-rule:nonzero;fill:rgb(0%,0%,0%);fill-opacity:1;" d="M 4.554688 6.449219 C 4.628906 6.480469 4.722656 6.46875 4.753906 6.4375 C 4.796875 6.40625 4.734375 6.375 4.617188 6.386719 C 4.5 6.386719 4.46875 6.417969 4.554688 6.449219 Z M 4.554688 6.449219 "/>
<path style=" stroke:none;fill-rule:nonzero;fill:rgb(0%,0%,0%);fill-opacity:1;" d="M 1.828125 13.175781 C 1.828125 13.375 1.851562 13.460938 1.882812 13.355469 C 1.902344 13.261719 1.902344 13.089844 1.882812 12.984375 C 1.851562 12.886719 1.828125 12.972656 1.828125 13.175781 Z M 1.828125 13.175781 "/>
<path style=" stroke:none;fill-rule:nonzero;fill:rgb(0%,0%,0%);fill-opacity:1;" d="M 2.246094 13.027344 C 2.246094 13.144531 2.277344 13.175781 2.308594 13.089844 C 2.339844 13.015625 2.328125 12.921875 2.296875 12.886719 C 2.265625 12.84375 2.234375 12.910156 2.246094 13.027344 Z M 2.246094 13.027344 "/>
<path style=" stroke:none;fill-rule:nonzero;fill:rgb(0%,0%,0%);fill-opacity:1;" d="M 1.945312 15.9375 C 1.945312 16.257812 1.96875 16.394531 1.988281 16.222656 C 2.011719 16.066406 2.011719 15.808594 1.988281 15.640625 C 1.96875 15.480469 1.945312 15.617188 1.945312 15.9375 Z M 1.945312 15.9375 "/>
</g>
</svg>
