<?xml version="1.0" encoding="UTF-8"?>
<svg xmlns="http://www.w3.org/2000/svg" xmlns:xlink="http://www.w3.org/1999/xlink" width="12px" height="20px" viewBox="0 0 12 20" version="1.1">
<g id="surface1">
<path style=" stroke:none;fill-rule:nonzero;fill:rgb(0%,0%,0%);fill-opacity:1;" d="M 1.914062 0.132812 C 1.792969 0.148438 1.734375 0.175781 1.789062 0.179688 C 1.84375 0.195312 1.820312 0.21875 1.730469 0.257812 C 1.640625 0.289062 1.539062 0.304688 1.492188 0.289062 C 1.449219 0.269531 1.367188 0.292969 1.308594 0.335938 C 1.210938 0.40625 1.207031 0.449219 1.265625 0.632812 C 1.335938 0.84375 1.386719 1.832031 1.335938 1.992188 C 1.320312 2.042969 1.410156 2.132812 1.5625 2.210938 C 1.761719 2.3125 1.824219 2.386719 1.839844 2.53125 C 1.851562 2.636719 1.875 2.761719 1.894531 2.8125 C 1.921875 2.863281 1.925781 3.03125 1.921875 3.1875 L 1.902344 3.476562 L 2.164062 3.449219 L 2.425781 3.425781 L 2.40625 2.886719 L 2.394531 2.351562 L 2.667969 2.167969 C 2.878906 2.03125 2.929688 1.960938 2.890625 1.882812 C 2.867188 1.824219 2.839844 1.449219 2.835938 1.039062 C 2.828125 0.382812 2.816406 0.289062 2.707031 0.230469 C 2.527344 0.132812 2.164062 0.0859375 1.914062 0.132812 Z M 1.914062 0.132812 "/>
<path style=" stroke:none;fill-rule:nonzero;fill:rgb(0%,0%,0%);fill-opacity:1;" d="M 3.828125 3.425781 C 3.828125 3.46875 3.734375 3.5 3.605469 3.5 C 3.484375 3.5 3.382812 3.523438 3.382812 3.5625 C 3.382812 3.59375 3.421875 3.605469 3.464844 3.585938 C 3.515625 3.570312 3.582031 3.625 3.625 3.71875 C 3.664062 3.804688 3.726562 3.875 3.765625 3.875 C 3.867188 3.875 3.84375 3.761719 3.722656 3.695312 C 3.585938 3.625 3.636719 3.542969 3.785156 3.601562 C 4.058594 3.699219 4.097656 3.894531 4.175781 5.554688 C 4.21875 6.4375 4.257812 7.71875 4.265625 8.40625 L 4.277344 9.65625 L 3.917969 10.15625 L 3.320312 10.207031 C 2.988281 10.230469 2.433594 10.242188 2.09375 10.238281 C 1.621094 10.226562 1.492188 10.238281 1.542969 10.292969 C 1.578125 10.332031 1.648438 10.351562 1.699219 10.332031 C 1.75 10.3125 1.863281 10.320312 1.953125 10.335938 C 2.085938 10.375 2.113281 10.40625 2.074219 10.519531 C 2.050781 10.59375 2.03125 10.699219 2.03125 10.757812 C 2.035156 10.835938 1.933594 10.867188 1.511719 10.90625 C 1.226562 10.929688 0.914062 10.988281 0.8125 11.039062 C 0.421875 11.238281 0.28125 11.75 0.484375 12.242188 C 0.605469 12.542969 0.796875 12.675781 1.179688 12.730469 C 1.460938 12.769531 1.46875 12.769531 1.46875 13.007812 C 1.46875 13.136719 1.53125 13.375 1.609375 13.53125 C 1.683594 13.679688 1.734375 13.820312 1.71875 13.832031 C 1.410156 14.074219 1.046875 14.3125 0.988281 14.3125 C 0.945312 14.3125 0.894531 14.269531 0.875 14.21875 C 0.824219 14.101562 0.535156 14.195312 0.292969 14.414062 C 0.0429688 14.644531 0.128906 14.667969 0.472656 14.46875 C 0.714844 14.332031 0.785156 14.3125 0.863281 14.375 C 1.003906 14.492188 0.976562 14.5625 0.773438 14.632812 C 0.5625 14.707031 0.222656 15.09375 0.289062 15.195312 C 0.3125 15.226562 0.445312 15.132812 0.601562 14.96875 C 0.898438 14.65625 0.957031 14.636719 1.109375 14.804688 C 1.246094 14.957031 1.199219 15.054688 0.914062 15.25 C 0.734375 15.367188 0.707031 15.414062 0.792969 15.425781 C 0.847656 15.4375 1.003906 15.375 1.125 15.28125 C 1.296875 15.15625 1.335938 15.085938 1.300781 14.976562 C 1.277344 14.855469 1.308594 14.8125 1.5 14.726562 C 1.882812 14.542969 2.042969 14.375 2.042969 14.148438 C 2.042969 14 2.074219 13.9375 2.171875 13.90625 C 2.355469 13.851562 2.394531 13.601562 2.265625 13.261719 C 2.203125 13.101562 2.125 12.945312 2.101562 12.90625 C 2.003906 12.804688 2.035156 12.699219 2.15625 12.730469 C 2.214844 12.742188 2.386719 12.730469 2.535156 12.699219 L 2.800781 12.636719 L 2.667969 12.867188 C 2.449219 13.242188 2.65625 13.492188 3.011719 13.292969 C 3.183594 13.199219 3.203125 13.199219 3.394531 13.3125 C 3.511719 13.382812 3.726562 13.449219 3.875 13.476562 C 4.027344 13.492188 4.160156 13.539062 4.179688 13.5625 C 4.199219 13.59375 4.277344 13.601562 4.351562 13.574219 C 4.457031 13.550781 4.472656 13.5625 4.429688 13.632812 C 4.226562 13.960938 3.964844 14.324219 3.734375 14.59375 C 3.59375 14.761719 3.363281 15.054688 3.230469 15.238281 C 3.097656 15.417969 2.957031 15.554688 2.910156 15.542969 C 2.796875 15.507812 2.617188 15.75 2.648438 15.898438 C 2.675781 15.992188 2.605469 16.105469 2.425781 16.292969 C 2.207031 16.519531 2.136719 16.554688 1.984375 16.523438 C 1.824219 16.492188 1.789062 16.519531 1.652344 16.730469 C 1.570312 16.863281 1.507812 16.992188 1.519531 17.019531 C 1.5625 17.15625 1.386719 17.3125 1.1875 17.3125 C 0.933594 17.3125 0.894531 17.40625 0.855469 18.144531 C 0.84375 18.414062 0.816406 18.648438 0.804688 18.679688 C 0.785156 18.710938 0.636719 18.769531 0.480469 18.8125 C 0.0273438 18.9375 0.0507812 19.019531 0.515625 18.96875 C 1.089844 18.90625 1.125 18.875 1.175781 18.445312 C 1.238281 17.914062 1.359375 17.53125 1.46875 17.53125 C 1.578125 17.53125 1.578125 17.59375 1.507812 18.445312 L 1.457031 18.980469 L 1.128906 19.125 C 0.875 19.230469 0.828125 19.273438 0.925781 19.292969 C 1.074219 19.332031 1.703125 19.199219 1.753906 19.125 C 1.773438 19.101562 1.832031 18.835938 1.882812 18.550781 C 1.996094 17.957031 2.074219 17.75 2.183594 17.75 C 2.316406 17.75 2.617188 17.417969 2.617188 17.269531 C 2.617188 17.167969 2.65625 17.125 2.746094 17.125 C 2.820312 17.125 2.941406 17.082031 3.019531 17.03125 C 3.160156 16.945312 3.171875 16.949219 3.28125 17.125 C 3.339844 17.230469 3.433594 17.3125 3.484375 17.3125 C 3.601562 17.3125 3.933594 17.992188 4.027344 18.429688 C 4.085938 18.699219 4.109375 18.738281 4.28125 18.761719 C 4.386719 18.78125 4.578125 18.742188 4.710938 18.679688 L 4.945312 18.574219 L 4.703125 18.570312 C 4.570312 18.5625 4.457031 18.53125 4.441406 18.488281 C 4.429688 18.445312 4.378906 18.210938 4.320312 17.980469 C 4.175781 17.386719 4.046875 17.144531 3.835938 17.074219 C 3.574219 16.988281 3.535156 16.769531 3.757812 16.65625 C 3.855469 16.613281 4.140625 16.304688 4.386719 15.988281 C 4.632812 15.667969 5.113281 15.054688 5.449219 14.625 C 5.886719 14.074219 6.078125 13.773438 6.101562 13.605469 C 6.128906 13.480469 6.164062 13.375 6.199219 13.375 C 6.230469 13.375 6.253906 13.320312 6.253906 13.25 C 6.253906 13.179688 6.289062 13.125 6.320312 13.125 C 6.359375 13.125 6.382812 13.070312 6.382812 13 C 6.382812 12.914062 6.425781 12.875 6.535156 12.875 C 6.621094 12.875 6.757812 12.820312 6.855469 12.742188 C 7.046875 12.59375 7.148438 12.632812 7.148438 12.851562 C 7.148438 12.9375 7.21875 13.144531 7.308594 13.3125 L 7.46875 13.625 L 7.28125 13.625 C 7.148438 13.625 7.007812 13.707031 6.773438 13.925781 C 6.550781 14.132812 6.394531 14.226562 6.273438 14.21875 C 6.140625 14.21875 6.070312 14.269531 5.957031 14.46875 C 5.6875 14.929688 5.800781 15.039062 6.078125 14.585938 C 6.179688 14.429688 6.28125 14.320312 6.3125 14.335938 C 6.34375 14.355469 6.363281 14.492188 6.359375 14.636719 C 6.351562 14.90625 6.351562 14.90625 6.019531 15 C 5.667969 15.09375 5.574219 15.1875 5.828125 15.1875 C 6.089844 15.1875 6.445312 15.054688 6.445312 14.96875 C 6.445312 14.863281 6.734375 14.835938 6.796875 14.929688 C 6.816406 14.96875 6.722656 15.105469 6.585938 15.242188 C 6.410156 15.425781 6.371094 15.5 6.445312 15.5 C 6.582031 15.5 6.96875 15.105469 6.949219 14.992188 C 6.945312 14.945312 7.097656 14.742188 7.296875 14.542969 C 7.613281 14.226562 7.660156 14.144531 7.660156 13.929688 C 7.660156 13.730469 7.683594 13.675781 7.804688 13.632812 C 8.101562 13.519531 8.136719 13.398438 8.011719 13.042969 C 7.945312 12.863281 7.859375 12.675781 7.804688 12.617188 C 7.734375 12.53125 7.742188 12.507812 7.859375 12.398438 C 8.015625 12.261719 8.226562 11.835938 8.234375 11.65625 C 8.234375 11.5625 8.378906 11.4375 8.746094 11.21875 C 9.027344 11.042969 9.269531 10.863281 9.289062 10.8125 C 9.351562 10.613281 10.035156 10.367188 10.125 10.511719 C 10.195312 10.617188 10.003906 11.070312 9.847656 11.167969 C 9.742188 11.238281 9.703125 11.320312 9.703125 11.492188 C 9.707031 11.84375 9.875 12.4375 9.988281 12.523438 C 10.085938 12.59375 10.089844 12.625 10.015625 12.757812 C 9.964844 12.835938 9.894531 12.925781 9.855469 12.949219 C 9.746094 13.019531 9.097656 13.960938 9.199219 13.90625 C 9.269531 13.863281 9.273438 13.867188 9.210938 13.949219 C 9.164062 14 9.148438 14.054688 9.164062 14.082031 C 9.203125 14.117188 8.828125 14.675781 8.328125 15.300781 C 8.144531 15.53125 7.789062 15.875 7.734375 15.875 C 7.632812 15.875 7.402344 16.1875 7.402344 16.324219 C 7.402344 16.386719 7.359375 16.457031 7.308594 16.476562 C 7.257812 16.5 7.210938 16.542969 7.210938 16.585938 C 7.210938 16.675781 6.933594 16.9375 6.84375 16.9375 C 6.746094 16.9375 6.695312 17.039062 6.613281 17.398438 C 6.542969 17.707031 6.53125 17.71875 6.34375 17.699219 L 6.148438 17.679688 L 6.007812 18.292969 C 5.921875 18.632812 5.847656 18.960938 5.828125 19.03125 C 5.808594 19.105469 5.660156 19.226562 5.46875 19.3125 C 4.894531 19.59375 5.015625 19.707031 5.6875 19.523438 C 6.097656 19.414062 6.070312 19.445312 6.480469 18.386719 C 6.632812 17.976562 6.695312 17.90625 6.847656 17.929688 C 6.9375 17.945312 7.140625 17.667969 7.148438 17.53125 C 7.148438 17.460938 7.195312 17.351562 7.25 17.28125 C 7.320312 17.1875 7.367188 17.175781 7.457031 17.226562 C 7.601562 17.320312 7.628906 17.523438 7.5 17.625 C 7.449219 17.667969 7.402344 17.78125 7.402344 17.882812 C 7.402344 18.007812 7.347656 18.101562 7.195312 18.210938 C 7.019531 18.34375 6.9375 18.492188 6.773438 18.960938 C 6.585938 19.476562 6.542969 19.550781 6.394531 19.582031 C 6.300781 19.605469 6.140625 19.6875 6.03125 19.773438 L 5.839844 19.929688 L 6.050781 19.9375 C 6.171875 19.9375 6.414062 19.894531 6.59375 19.84375 C 6.914062 19.75 6.933594 19.726562 7.128906 19.324219 C 7.421875 18.71875 7.609375 18.429688 7.769531 18.292969 C 7.851562 18.230469 7.933594 18.09375 7.964844 17.988281 C 8.050781 17.675781 8.171875 17.695312 8.171875 18.019531 C 8.171875 18.175781 8.136719 18.3125 8.101562 18.324219 C 8.050781 18.34375 8.0625 18.492188 8.136719 18.835938 C 8.226562 19.230469 8.277344 19.335938 8.398438 19.386719 C 8.527344 19.449219 8.609375 19.414062 9.027344 19.132812 L 9.503906 18.8125 L 9.621094 19 C 9.785156 19.28125 9.917969 19.25 9.875 18.929688 C 9.855469 18.792969 9.828125 18.664062 9.8125 18.648438 C 9.726562 18.570312 9.25 18.625 9.011719 18.742188 C 8.867188 18.8125 8.726562 18.875 8.695312 18.875 C 8.605469 18.875 8.496094 18.355469 8.558594 18.238281 C 8.648438 18.082031 8.628906 17.867188 8.515625 17.742188 C 8.425781 17.648438 8.4375 17.632812 8.660156 17.523438 C 8.917969 17.398438 8.96875 17.332031 10.421875 15.28125 C 11.226562 14.144531 11.304688 14.011719 11.285156 13.792969 C 11.273438 13.617188 11.296875 13.539062 11.375 13.492188 C 11.4375 13.457031 11.464844 13.386719 11.445312 13.3125 C 11.417969 13.230469 11.449219 13.148438 11.527344 13.101562 C 11.628906 13.023438 11.628906 13 11.558594 12.914062 C 11.484375 12.824219 11.488281 12.792969 11.578125 12.695312 C 11.640625 12.625 11.667969 12.539062 11.640625 12.46875 C 11.609375 12.394531 11.65625 12.320312 11.777344 12.21875 L 11.960938 12.082031 L 11.878906 11.617188 C 11.789062 11.105469 11.667969 10.875 11.503906 10.875 C 11.4375 10.875 11.277344 10.761719 11.136719 10.625 L 10.890625 10.375 L 11.132812 10.167969 C 11.34375 9.992188 11.378906 9.917969 11.414062 9.636719 C 11.4375 9.324219 11.433594 9.300781 11.222656 9.105469 C 11.035156 8.9375 10.953125 8.898438 10.773438 8.925781 L 10.550781 8.949219 L 10.472656 8.570312 C 10.371094 8.070312 10.296875 7.992188 9.949219 8.074219 C 9.695312 8.144531 9.6875 8.148438 9.722656 8.375 C 9.742188 8.507812 9.734375 8.636719 9.707031 8.675781 C 9.652344 8.769531 8.730469 9.132812 8.625 9.105469 C 8.566406 9.09375 8.4375 9.125 8.335938 9.175781 C 8.226562 9.226562 7.882812 9.300781 7.570312 9.335938 L 6.988281 9.40625 L 6.949219 9.84375 C 6.914062 10.195312 6.925781 10.292969 7.003906 10.355469 C 7.058594 10.398438 7.085938 10.476562 7.066406 10.519531 C 7.019531 10.632812 6.636719 10.679688 5.859375 10.679688 L 5.304688 10.679688 L 5.203125 10.488281 C 5.152344 10.382812 5.105469 10.289062 5.105469 10.273438 C 5.105469 10.269531 5.296875 10.242188 5.539062 10.21875 C 6.21875 10.164062 6.410156 10.09375 6.59375 9.832031 C 6.703125 9.679688 6.742188 9.585938 6.695312 9.554688 C 6.644531 9.523438 6.652344 9.507812 6.703125 9.488281 C 6.765625 9.46875 6.765625 8.882812 6.703125 6.6875 C 6.664062 5.164062 6.605469 3.882812 6.585938 3.84375 C 6.542969 3.773438 6.515625 3.773438 5.3125 3.75 C 4.78125 3.742188 4.5 3.761719 4.4375 3.8125 C 4.320312 3.90625 4.195312 3.835938 3.988281 3.5625 C 3.898438 3.445312 3.828125 3.382812 3.828125 3.425781 Z M 4.457031 5.085938 C 4.441406 5.445312 4.457031 5.726562 4.472656 5.710938 C 4.519531 5.6875 4.628906 8.679688 4.582031 8.71875 C 4.570312 8.730469 4.519531 8.6875 4.472656 8.613281 C 4.429688 8.542969 4.421875 8.507812 4.460938 8.53125 C 4.5 8.550781 4.53125 8.523438 4.53125 8.46875 C 4.53125 8.414062 4.507812 8.382812 4.472656 8.398438 C 4.371094 8.46875 4.320312 6.875 4.359375 4.636719 C 4.359375 4.53125 4.390625 4.4375 4.417969 4.4375 C 4.449219 4.4375 4.46875 4.730469 4.457031 5.085938 Z M 5.03125 5.519531 C 5.121094 5.492188 5.121094 5.5 5.042969 5.550781 C 4.941406 5.625 4.851562 5.59375 4.859375 5.480469 C 4.859375 5.425781 4.871094 5.425781 4.890625 5.480469 C 4.910156 5.523438 4.972656 5.539062 5.03125 5.519531 Z M 4.832031 5.742188 C 4.875 5.824219 4.910156 5.949219 4.910156 6.023438 C 4.894531 6.148438 4.894531 6.148438 4.871094 6.019531 C 4.859375 5.9375 4.792969 5.84375 4.734375 5.800781 C 4.679688 5.757812 4.621094 5.679688 4.613281 5.636719 C 4.582031 5.511719 4.742188 5.582031 4.832031 5.742188 Z M 5.488281 6.023438 C 5.488281 6.039062 5.445312 6.070312 5.386719 6.085938 C 5.335938 6.105469 5.3125 6.101562 5.328125 6.0625 C 5.367188 6 5.488281 5.976562 5.488281 6.023438 Z M 4.761719 6.507812 L 4.671875 6.78125 L 4.664062 6.519531 C 4.660156 6.363281 4.691406 6.25 4.742188 6.230469 C 4.859375 6.195312 4.859375 6.199219 4.761719 6.507812 Z M 9.828125 9 C 9.828125 9.03125 9.714844 9.132812 9.574219 9.21875 C 9.371094 9.34375 9.320312 9.414062 9.320312 9.5625 C 9.320312 9.757812 9.128906 9.9375 8.910156 9.9375 C 8.847656 9.9375 8.605469 10.039062 8.375 10.164062 C 7.945312 10.398438 7.839844 10.386719 7.894531 10.117188 C 7.914062 9.992188 8.023438 9.914062 8.335938 9.761719 C 8.566406 9.648438 8.746094 9.523438 8.746094 9.46875 C 8.746094 9.417969 8.75 9.375 8.765625 9.375 C 8.769531 9.375 9.007812 9.273438 9.289062 9.15625 C 9.875 8.90625 9.828125 8.917969 9.828125 9 Z M 10.550781 9.75 C 10.589844 9.949219 10.589844 9.960938 10.5 9.851562 C 10.449219 9.78125 10.402344 9.625 10.410156 9.507812 C 10.410156 9.332031 10.421875 9.304688 10.460938 9.40625 C 10.488281 9.476562 10.53125 9.632812 10.550781 9.75 Z M 5.667969 9.605469 C 5.535156 9.617188 5.304688 9.617188 5.15625 9.605469 C 5.003906 9.59375 5.113281 9.582031 5.394531 9.582031 C 5.675781 9.582031 5.796875 9.59375 5.667969 9.605469 Z M 2.554688 10.429688 C 2.554688 10.46875 2.519531 10.511719 2.484375 10.53125 C 2.445312 10.554688 2.433594 10.613281 2.449219 10.664062 C 2.46875 10.710938 2.457031 10.75 2.425781 10.75 C 2.355469 10.75 2.347656 10.710938 2.398438 10.511719 C 2.4375 10.382812 2.554688 10.320312 2.554688 10.429688 Z M 3.191406 11.0625 C 3.191406 11.09375 3.179688 11.125 3.164062 11.125 C 3.148438 11.125 3.113281 11.09375 3.097656 11.0625 C 3.078125 11.023438 3.089844 11 3.121094 11 C 3.160156 11 3.191406 11.023438 3.191406 11.0625 Z M 6.996094 11.414062 C 6.945312 11.582031 6.898438 11.675781 6.898438 11.625 C 6.894531 11.488281 7.027344 11.042969 7.058594 11.082031 C 7.078125 11.101562 7.054688 11.25 6.996094 11.414062 Z M 5.457031 11.5625 C 5.457031 11.855469 5.445312 11.917969 5.386719 11.84375 C 5.324219 11.757812 5.3125 11.757812 5.265625 11.855469 C 5.226562 11.957031 5.214844 11.957031 5.171875 11.832031 C 5.136719 11.757812 5.125 11.617188 5.144531 11.519531 C 5.183594 11.300781 5.296875 11.175781 5.304688 11.34375 C 5.304688 11.457031 5.3125 11.457031 5.363281 11.324219 C 5.394531 11.25 5.433594 11.1875 5.4375 11.1875 C 5.449219 11.1875 5.457031 11.355469 5.457031 11.5625 Z M 1.945312 11.488281 C 1.925781 11.53125 1.914062 11.6875 1.914062 11.820312 C 1.914062 11.96875 1.890625 12.054688 1.851562 12.03125 C 1.8125 12.011719 1.789062 12.054688 1.789062 12.136719 C 1.78125 12.269531 1.78125 12.273438 1.710938 12.164062 C 1.648438 12.050781 1.628906 11.542969 1.683594 11.449219 C 1.742188 11.363281 1.984375 11.394531 1.945312 11.488281 Z M 6.792969 11.636719 C 6.816406 11.789062 6.8125 11.875 6.765625 11.875 C 6.734375 11.875 6.703125 11.757812 6.703125 11.613281 C 6.703125 11.304688 6.734375 11.320312 6.792969 11.636719 Z M 3.011719 11.65625 C 3 11.773438 3.019531 11.914062 3.058594 11.960938 C 3.113281 12.023438 3.089844 12.042969 2.941406 12.050781 C 2.769531 12.054688 2.757812 12.042969 2.769531 11.804688 C 2.777344 11.667969 2.757812 11.5625 2.71875 11.5625 C 2.609375 11.5625 2.828125 11.4375 2.9375 11.4375 C 3.011719 11.4375 3.03125 11.488281 3.011719 11.65625 Z M 0.746094 11.917969 C 0.726562 11.980469 0.714844 11.945312 0.714844 11.84375 C 0.714844 11.738281 0.726562 11.695312 0.746094 11.730469 C 0.757812 11.773438 0.757812 11.863281 0.746094 11.917969 Z M 4.046875 12.21875 C 4.066406 12.300781 4.167969 12.445312 4.265625 12.539062 C 4.4375 12.699219 4.4375 12.699219 4.28125 12.667969 C 4.199219 12.648438 4.085938 12.664062 4.019531 12.699219 C 3.957031 12.742188 3.863281 12.75 3.792969 12.71875 C 3.675781 12.675781 3.675781 12.667969 3.777344 12.644531 C 3.886719 12.617188 3.886719 12.605469 3.785156 12.511719 C 3.726562 12.457031 3.671875 12.4375 3.65625 12.46875 C 3.644531 12.507812 3.605469 12.574219 3.566406 12.625 C 3.515625 12.695312 3.492188 12.699219 3.464844 12.636719 C 3.453125 12.601562 3.394531 12.5625 3.34375 12.5625 C 3.292969 12.5625 3.253906 12.601562 3.253906 12.636719 C 3.253906 12.695312 3.234375 12.699219 3.203125 12.648438 C 3.179688 12.613281 3.113281 12.5625 3.0625 12.542969 C 3.011719 12.523438 3.101562 12.507812 3.261719 12.507812 C 3.554688 12.5 3.703125 12.40625 3.785156 12.167969 C 3.84375 12.011719 4.003906 12.039062 4.046875 12.21875 Z M 3.128906 12.875 C 3.128906 12.90625 3.113281 12.9375 3.101562 12.9375 C 3.082031 12.9375 3.050781 12.90625 3.03125 12.875 C 3.011719 12.835938 3.027344 12.8125 3.058594 12.8125 C 3.097656 12.8125 3.128906 12.835938 3.128906 12.875 Z M 9.933594 14.5625 C 10.035156 14.5625 10.054688 14.664062 9.964844 14.71875 C 9.933594 14.738281 9.886719 14.835938 9.863281 14.9375 C 9.835938 15.042969 9.792969 15.125 9.757812 15.125 C 9.726562 15.125 9.703125 15.199219 9.703125 15.289062 C 9.703125 15.40625 9.675781 15.445312 9.605469 15.414062 C 9.515625 15.382812 9.480469 15.449219 9.503906 15.585938 C 9.523438 15.667969 9.375 15.8125 9.3125 15.773438 C 9.28125 15.757812 9.179688 15.824219 9.082031 15.917969 C 8.988281 16.019531 8.929688 16.050781 8.957031 15.988281 C 8.972656 15.925781 8.957031 15.867188 8.898438 15.851562 C 8.816406 15.820312 8.820312 15.792969 8.910156 15.65625 C 8.972656 15.5625 8.988281 15.5 8.941406 15.5 C 8.902344 15.5 8.871094 15.46875 8.871094 15.4375 C 8.871094 15.398438 8.910156 15.375 8.957031 15.375 C 8.992188 15.375 9.070312 15.292969 9.113281 15.199219 C 9.234375 14.925781 9.613281 14.554688 9.722656 14.601562 C 9.792969 14.625 9.816406 14.601562 9.804688 14.519531 C 9.792969 14.457031 9.796875 14.445312 9.8125 14.480469 C 9.828125 14.523438 9.878906 14.5625 9.933594 14.5625 Z M 8.183594 16.792969 C 8.246094 16.851562 8.296875 16.925781 8.296875 16.957031 C 8.296875 16.992188 8.234375 16.96875 8.164062 16.898438 C 8.023438 16.78125 8.023438 16.78125 8.101562 16.917969 C 8.164062 17.042969 8.15625 17.054688 8.066406 17.019531 C 7.996094 16.992188 7.972656 17 8.003906 17.050781 C 8.023438 17.085938 8.015625 17.132812 7.980469 17.15625 C 7.945312 17.175781 7.914062 17.164062 7.914062 17.132812 C 7.914062 17.09375 7.863281 17.0625 7.804688 17.0625 C 7.710938 17.0625 7.703125 17.074219 7.789062 17.125 C 7.871094 17.175781 7.871094 17.1875 7.773438 17.1875 C 7.71875 17.1875 7.582031 17.113281 7.488281 17.023438 C 7.390625 16.9375 7.351562 16.886719 7.402344 16.914062 C 7.589844 17.011719 7.734375 16.980469 7.792969 16.832031 C 7.859375 16.664062 8.015625 16.644531 8.183594 16.792969 Z M 2.023438 17.394531 C 1.972656 17.46875 1.863281 17.542969 1.78125 17.550781 C 1.628906 17.574219 1.628906 17.574219 1.8125 17.382812 C 2.015625 17.175781 2.171875 17.179688 2.023438 17.394531 Z M 2.023438 17.394531 "/>
<path style=" stroke:none;fill-rule:nonzero;fill:rgb(0%,0%,0%);fill-opacity:1;" d="M 3.835938 12.289062 C 3.835938 12.355469 3.855469 12.375 3.875 12.324219 C 3.894531 12.28125 3.886719 12.226562 3.867188 12.207031 C 3.847656 12.179688 3.828125 12.21875 3.835938 12.289062 Z M 3.835938 12.289062 "/>
<path style=" stroke:none;fill-rule:nonzero;fill:rgb(0%,0%,0%);fill-opacity:1;" d="M 4.488281 3.417969 C 4.542969 3.429688 4.632812 3.429688 4.679688 3.417969 C 4.71875 3.398438 4.671875 3.386719 4.5625 3.386719 C 4.460938 3.386719 4.421875 3.398438 4.488281 3.417969 Z M 4.488281 3.417969 "/>
<path style=" stroke:none;fill-rule:nonzero;fill:rgb(0%,0%,0%);fill-opacity:1;" d="M 4.980469 3.414062 C 5.15625 3.460938 6.320312 3.539062 6.269531 3.492188 C 6.242188 3.46875 5.921875 3.4375 5.554688 3.417969 C 5.183594 3.398438 4.925781 3.398438 4.980469 3.414062 Z M 4.980469 3.414062 "/>
<path style=" stroke:none;fill-rule:nonzero;fill:rgb(0%,0%,0%);fill-opacity:1;" d="M 1.664062 3.605469 C 1.441406 3.617188 1.226562 3.664062 1.1875 3.707031 C 0.863281 4.039062 0.796875 4.375 1.054688 4.488281 C 1.1875 4.550781 1.199219 4.542969 1.167969 4.449219 C 1.148438 4.394531 1.085938 4.292969 1.035156 4.230469 C 0.984375 4.175781 0.957031 4.105469 0.976562 4.082031 C 1.003906 4.0625 1.019531 4.074219 1.019531 4.113281 C 1.019531 4.15625 1.054688 4.1875 1.089844 4.1875 C 1.128906 4.1875 1.148438 4.144531 1.128906 4.09375 C 1.097656 4.023438 1.125 4.019531 1.246094 4.0625 C 1.339844 4.101562 1.417969 4.101562 1.4375 4.0625 C 1.492188 3.96875 1.851562 4.019531 1.851562 4.125 C 1.859375 4.175781 1.902344 4.144531 1.953125 4.042969 C 2.003906 3.949219 2.09375 3.875 2.15625 3.875 C 2.222656 3.875 2.335938 3.832031 2.417969 3.769531 C 2.503906 3.710938 2.75 3.648438 2.960938 3.625 C 3.300781 3.585938 3.273438 3.582031 2.710938 3.582031 C 2.363281 3.585938 1.890625 3.59375 1.664062 3.605469 Z M 2.277344 3.726562 C 2.257812 3.742188 2.203125 3.75 2.15625 3.730469 C 2.105469 3.710938 2.125 3.695312 2.195312 3.695312 C 2.265625 3.6875 2.304688 3.707031 2.277344 3.726562 Z M 2.277344 3.726562 "/>
<path style=" stroke:none;fill-rule:nonzero;fill:rgb(0%,0%,0%);fill-opacity:1;" d="M 2.730469 3.792969 C 2.777344 3.8125 2.835938 3.804688 2.851562 3.789062 C 2.878906 3.769531 2.839844 3.75 2.769531 3.757812 C 2.699219 3.757812 2.679688 3.773438 2.730469 3.792969 Z M 2.730469 3.792969 "/>
<path style=" stroke:none;fill-rule:nonzero;fill:rgb(0%,0%,0%);fill-opacity:1;" d="M 1.097656 7.75 C 1.097656 7.867188 1.109375 7.917969 1.128906 7.855469 C 1.140625 7.800781 1.140625 7.699219 1.128906 7.636719 C 1.109375 7.582031 1.097656 7.632812 1.097656 7.75 Z M 1.097656 7.75 "/>
<path style=" stroke:none;fill-rule:nonzero;fill:rgb(0%,0%,0%);fill-opacity:1;" d="M 1.347656 7.664062 C 1.347656 7.730469 1.367188 7.75 1.386719 7.699219 C 1.402344 7.65625 1.398438 7.601562 1.378906 7.582031 C 1.359375 7.554688 1.339844 7.59375 1.347656 7.664062 Z M 1.347656 7.664062 "/>
<path style=" stroke:none;fill-rule:nonzero;fill:rgb(0%,0%,0%);fill-opacity:1;" d="M 1.167969 9.375 C 1.167969 9.5625 1.179688 9.644531 1.195312 9.542969 C 1.207031 9.449219 1.207031 9.300781 1.195312 9.199219 C 1.179688 9.105469 1.167969 9.1875 1.167969 9.375 Z M 1.167969 9.375 "/>
</g>
</svg>
